<svg xmlns="http://www.w3.org/2000/svg" width="183.571" height="184.032" viewBox="0 0 183.571 184.032">
  <g id="Tbilisee_Hotel" data-name="Tbilisee Hotel" transform="translate(2.744 3.11)">
    <text id="T" transform="translate(27.097 48.558) rotate(-53.34)" fill="#fff" font-size="17" font-family="SegoeUI, Segoe UI"><tspan x="0" y="0">T</tspan></text>
    <text id="b" transform="translate(31.973 41.928) rotate(-46.77)" fill="#fff" font-size="17" font-family="SegoeUI, Segoe UI"><tspan x="0" y="0">b</tspan></text>
    <text id="i" transform="matrix(0.747, -0.664, 0.664, 0.747, 38.333, 35.313)" fill="#fff" font-size="17" font-family="SegoeUI, Segoe UI"><tspan x="0" y="0">i</tspan></text>
    <text id="l" transform="translate(41.505 32.491) rotate(-38.42)" fill="#fff" font-size="17" font-family="SegoeUI, Segoe UI"><tspan x="0" y="0">l</tspan></text>
    <text id="i-2" data-name="i" transform="translate(44.677 29.958) rotate(-35.2)" fill="#fff" font-size="17" font-family="SegoeUI, Segoe UI"><tspan x="0" y="0">i</tspan></text>
    <text id="s" transform="translate(48.088 27.464) rotate(-30.68)" fill="#fff" font-size="17" font-family="SegoeUI, Segoe UI"><tspan x="0" y="0">s</tspan></text>
    <text id="e" transform="matrix(0.912, -0.411, 0.411, 0.912, 54.393, 23.67)" fill="#fff" font-size="17" font-family="SegoeUI, Segoe UI"><tspan x="0" y="0">e</tspan></text>
    <text id="e-2" data-name="e" transform="translate(62.344 20.033) rotate(-17.59)" fill="#fff" font-size="17" font-family="SegoeUI, Segoe UI"><tspan x="0" y="0">e</tspan></text>
    <text id="H" transform="translate(75.764 16.215) rotate(-6.34)" fill="#fff" font-size="17" font-family="SegoeUI, Segoe UI"><tspan x="0" y="0">H</tspan></text>
    <text id="o" transform="translate(86.052 15.128) rotate(1.63)" fill="#fff" font-size="17" font-family="SegoeUI, Segoe UI"><tspan x="0" y="0">o</tspan></text>
    <text id="t-2" data-name="t" transform="translate(95.959 15.509) rotate(7.7)" fill="#fff" font-size="17" font-family="SegoeUI, Segoe UI"><tspan x="0" y="0">t</tspan></text>
    <text id="e-3" data-name="e" transform="translate(101.691 16.197) rotate(13.36)" fill="#fff" font-size="17" font-family="SegoeUI, Segoe UI"><tspan x="0" y="0">e</tspan></text>
    <text id="l-2" data-name="l" transform="translate(110.231 18.319) rotate(18.36)" fill="#fff" font-size="17" font-family="SegoeUI, Segoe UI"><tspan x="0" y="0">l</tspan></text>
    <text id="_" data-name="@" transform="translate(132.697 28.819) rotate(43.386)" fill="#fff" font-size="17" font-family="SegoeUI, Segoe UI"><tspan x="0" y="0">@</tspan></text>
    <text id="T-3" data-name="T" transform="translate(154.735 55.233) rotate(66.272)" fill="#fff" font-size="17" font-family="SegoeUI, Segoe UI"><tspan x="0" y="0">T</tspan></text>
    <text id="b-2" data-name="b" transform="matrix(0.296, 0.955, -0.955, 0.296, 158.085, 62.702)" fill="#fff" font-size="17" font-family="SegoeUI, Segoe UI"><tspan x="0" y="0">b</tspan></text>
    <text id="l-3" data-name="l" transform="translate(160.703 71.545) rotate(77.99)" fill="#fff" font-size="17" font-family="SegoeUI, Segoe UI"><tspan x="0" y="0">l</tspan></text>
    <text id="l-4" data-name="l" transform="translate(161.552 75.506) rotate(81.15)" fill="#fff" font-size="17" font-family="SegoeUI, Segoe UI"><tspan x="0" y="0">l</tspan></text>
    <text id="i-3" data-name="i" transform="translate(162.189 79.543) rotate(84.38)" fill="#fff" font-size="17" font-family="SegoeUI, Segoe UI"><tspan x="0" y="0">i</tspan></text>
    <text id="s-2" data-name="s" transform="translate(162.673 83.728) rotate(88.87)" fill="#fff" font-size="17" font-family="SegoeUI, Segoe UI"><tspan x="0" y="0">s</tspan></text>
    <text id="e-4" data-name="e" transform="translate(162.867 91.092) rotate(95.03)" fill="#fff" font-size="17" font-family="SegoeUI, Segoe UI"><tspan x="0" y="0">e</tspan></text>
    <text id="e-5" data-name="e" transform="matrix(-0.204, 0.979, -0.979, -0.204, 162.119, 99.771)" fill="#fff" font-size="17" font-family="SegoeUI, Segoe UI"><tspan x="0" y="0">e</tspan></text>
    <text id="H-2" data-name="H" transform="translate(158.863 113.341) rotate(113.34)" fill="#fff" font-size="17" font-family="SegoeUI, Segoe UI"><tspan x="0" y="0">H</tspan></text>
    <text id="o-2" data-name="o" transform="matrix(-0.517, 0.856, -0.856, -0.517, 154.762, 122.866)" fill="#fff" font-size="17" font-family="SegoeUI, Segoe UI"><tspan x="0" y="0">o</tspan></text>
    <text id="t-4" data-name="t" transform="matrix(-0.605, 0.796, -0.796, -0.605, 149.578, 131.243)" fill="#fff" font-size="17" font-family="SegoeUI, Segoe UI"><tspan x="0" y="0">t</tspan></text>
    <text id="e-6" data-name="e" transform="matrix(-0.68, 0.733, -0.733, -0.68, 146.139, 135.908)" fill="#fff" font-size="17" font-family="SegoeUI, Segoe UI"><tspan x="0" y="0">e</tspan></text>
    <text id="l-5" data-name="l" transform="translate(140.066 142.312) rotate(137.82)" fill="#fff" font-size="17" font-family="SegoeUI, Segoe UI"><tspan x="0" y="0">l</tspan></text>
    <text id="_2" data-name="@" transform="translate(124.622 154.376) rotate(158.839)" fill="#fff" font-size="17" font-family="SegoeUI, Segoe UI"><tspan x="0" y="0">@</tspan></text>
    <text id="T-5" data-name="T" transform="translate(91.304 162.922) rotate(-178.282)" fill="#fff" font-size="17" font-family="SegoeUI, Segoe UI"><tspan x="0" y="0">T</tspan></text>
    <text id="b-3" data-name="b" transform="translate(83.065 162.735) rotate(-171.85)" fill="#fff" font-size="17" font-family="SegoeUI, Segoe UI"><tspan x="0" y="0">b</tspan></text>
    <text id="i-4" data-name="i" transform="translate(73.994 161.341) rotate(-166.64)" fill="#fff" font-size="17" font-family="SegoeUI, Segoe UI"><tspan x="0" y="0">i</tspan></text>
    <text id="l-6" data-name="l" transform="translate(69.853 160.354) rotate(-163.39)" fill="#fff" font-size="17" font-family="SegoeUI, Segoe UI"><tspan x="0" y="0">l</tspan></text>
    <text id="i-5" data-name="i" transform="translate(65.983 159.214) rotate(-160.15)" fill="#fff" font-size="17" font-family="SegoeUI, Segoe UI"><tspan x="0" y="0">i</tspan></text>
    <text id="s-3" data-name="s" transform="matrix(-0.912, -0.411, 0.411, -0.912, 61.997, 157.843)" fill="#fff" font-size="17" font-family="SegoeUI, Segoe UI"><tspan x="0" y="0">s</tspan></text>
    <text id="e-7" data-name="e" transform="translate(55.255 154.847) rotate(-149.331)" fill="#fff" font-size="17" font-family="SegoeUI, Segoe UI"><tspan x="0" y="0">e</tspan></text>
    <text id="e-8" data-name="e" transform="translate(47.729 150.396) rotate(-142.326)" fill="#fff" font-size="17" font-family="SegoeUI, Segoe UI"><tspan x="0" y="0">e</tspan></text>
    <text id="H-3" data-name="H" transform="translate(36.898 141.587) rotate(-131.16)" fill="#fff" font-size="17" font-family="SegoeUI, Segoe UI"><tspan x="0" y="0">H</tspan></text>
    <text id="o-3" data-name="o" transform="matrix(-0.552, -0.834, 0.834, -0.552, 30.106, 133.818)" fill="#fff" font-size="17" font-family="SegoeUI, Segoe UI"><tspan x="0" y="0">o</tspan></text>
    <text id="t-6" data-name="t" transform="translate(24.73 125.513) rotate(-117.3)" fill="#fff" font-size="17" font-family="SegoeUI, Segoe UI"><tspan x="0" y="0">t</tspan></text>
    <text id="e-9" data-name="e" transform="translate(21.996 120.389) rotate(-111.695)" fill="#fff" font-size="17" font-family="SegoeUI, Segoe UI"><tspan x="0" y="0">e</tspan></text>
    <text id="l-7" data-name="l" transform="translate(18.848 112.18) rotate(-106.61)" fill="#fff" font-size="17" font-family="SegoeUI, Segoe UI"><tspan x="0" y="0">l</tspan></text>
    <text id="_3" data-name="@" transform="translate(14.832 82.473) rotate(-77.54)" fill="#fff" font-size="17" font-family="SegoeUI, Segoe UI"><tspan x="0" y="0">@</tspan></text>
  </g>
</svg>
