<svg xmlns="http://www.w3.org/2000/svg" width="287.369" height="287.994" viewBox="0 0 287.369 287.994">
  <g id="Tbilisee_Hotel" data-name="Tbilisee Hotel" transform="translate(4.697 5.105)">
    <text id="T" transform="translate(41.083 74.907) rotate(-53.34)" font-size="25" font-family="SegoeUI, Segoe UI"><tspan x="0" y="0">T</tspan></text>
    <text id="b" transform="translate(49.537 65.109) rotate(-46.77)" font-size="26" font-family="SegoeUI, Segoe UI"><tspan x="0" y="0">b</tspan></text>
    <text id="i" transform="matrix(0.747, -0.664, 0.664, 0.747, 59.492, 54.759)" font-size="26" font-family="SegoeUI, Segoe UI"><tspan x="0" y="0">i</tspan></text>
    <text id="l" transform="translate(64.465 50.337) rotate(-38.42)" font-size="26" font-family="SegoeUI, Segoe UI"><tspan x="0" y="0">l</tspan></text>
    <text id="i-2" data-name="i" transform="translate(69.442 46.364) rotate(-35.2)" font-size="26" font-family="SegoeUI, Segoe UI"><tspan x="0" y="0">i</tspan></text>
    <text id="s" transform="translate(73.788 40.725) rotate(-30.68)" font-size="24" font-family="SegoeUI, Segoe UI"><tspan x="0" y="0">s</tspan></text>
    <text id="e" transform="matrix(0.912, -0.411, 0.411, 0.912, 84.298, 35.584)" font-size="25" font-family="SegoeUI, Segoe UI"><tspan x="0" y="0">e</tspan></text>
    <text id="e-2" data-name="e" transform="translate(96.877 29.845) rotate(-17.59)" font-size="25" font-family="SegoeUI, Segoe UI"><tspan x="0" y="0">e</tspan></text>
    <text id="H" transform="translate(118.232 24.822) rotate(-6.34)" font-size="26" font-family="SegoeUI, Segoe UI"><tspan x="0" y="0">H</tspan></text>
    <text id="o" transform="translate(134.364 23.125) rotate(1.63)" font-size="26" font-family="SegoeUI, Segoe UI"><tspan x="0" y="0">o</tspan></text>
    <text id="t-2" data-name="t" transform="translate(149.875 23.726) rotate(7.7)" font-size="26" font-family="SegoeUI, Segoe UI"><tspan x="0" y="0">t</tspan></text>
    <text id="e-3" data-name="e" transform="translate(159.112 23.839) rotate(13.36)" font-size="25" font-family="SegoeUI, Segoe UI"><tspan x="0" y="0">e</tspan></text>
    <text id="l-2" data-name="l" transform="translate(172.245 28.135) rotate(18.36)" font-size="26" font-family="SegoeUI, Segoe UI"><tspan x="0" y="0">l</tspan></text>
    <text id="_" data-name="@" transform="translate(207.536 44.673) rotate(43.386)" font-size="26" font-family="SegoeUI, Segoe UI"><tspan x="0" y="0">@</tspan></text>
    <text id="T-3" data-name="T" transform="translate(242.949 85.663) rotate(66.272)" font-size="25" font-family="SegoeUI, Segoe UI"><tspan x="0" y="0">T</tspan></text>
    <text id="b-2" data-name="b" transform="matrix(0.296, 0.955, -0.955, 0.296, 247.282, 97.783)" font-size="26" font-family="SegoeUI, Segoe UI"><tspan x="0" y="0">b</tspan></text>
    <text id="l-3" data-name="l" transform="translate(251.376 111.622) rotate(77.99)" font-size="26" font-family="SegoeUI, Segoe UI"><tspan x="0" y="0">l</tspan></text>
    <text id="l-4" data-name="l" transform="translate(252.706 117.833) rotate(81.15)" font-size="26" font-family="SegoeUI, Segoe UI"><tspan x="0" y="0">l</tspan></text>
    <text id="i-3" data-name="i" transform="translate(253.703 124.165) rotate(84.38)" font-size="26" font-family="SegoeUI, Segoe UI"><tspan x="0" y="0">i</tspan></text>
    <text id="s-2" data-name="s" transform="translate(256.46 130.708) rotate(88.87)" font-size="24" font-family="SegoeUI, Segoe UI"><tspan x="0" y="0">s</tspan></text>
    <text id="e-4" data-name="e" transform="translate(255.755 142.39) rotate(95.03)" font-size="25" font-family="SegoeUI, Segoe UI"><tspan x="0" y="0">e</tspan></text>
    <text id="e-5" data-name="e" transform="matrix(-0.204, 0.979, -0.979, -0.204, 254.559, 156.116)" font-size="25" font-family="SegoeUI, Segoe UI"><tspan x="0" y="0">e</tspan></text>
    <text id="H-2" data-name="H" transform="translate(248.458 177.199) rotate(113.34)" font-size="26" font-family="SegoeUI, Segoe UI"><tspan x="0" y="0">H</tspan></text>
    <text id="o-2" data-name="o" transform="matrix(-0.517, 0.856, -0.856, -0.517, 242.021, 192.129)" font-size="26" font-family="SegoeUI, Segoe UI"><tspan x="0" y="0">o</tspan></text>
    <text id="t-4" data-name="t" transform="matrix(-0.605, 0.796, -0.796, -0.605, 233.902, 205.242)" font-size="26" font-family="SegoeUI, Segoe UI"><tspan x="0" y="0">t</tspan></text>
    <text id="e-6" data-name="e" transform="matrix(-0.68, 0.733, -0.733, -0.68, 229.227, 213.249)" font-size="25" font-family="SegoeUI, Segoe UI"><tspan x="0" y="0">e</tspan></text>
    <text id="l-5" data-name="l" transform="translate(218.99 222.587) rotate(137.82)" font-size="26" font-family="SegoeUI, Segoe UI"><tspan x="0" y="0">l</tspan></text>
    <text id="_2" data-name="@" transform="translate(194.68 241.531) rotate(158.839)" font-size="26" font-family="SegoeUI, Segoe UI"><tspan x="0" y="0">@</tspan></text>
    <text id="T-5" data-name="T" transform="translate(142.455 255.889) rotate(-178.282)" font-size="25" font-family="SegoeUI, Segoe UI"><tspan x="0" y="0">T</tspan></text>
    <text id="b-3" data-name="b" transform="translate(129.564 254.59) rotate(-171.85)" font-size="26" font-family="SegoeUI, Segoe UI"><tspan x="0" y="0">b</tspan></text>
    <text id="i-4" data-name="i" transform="translate(115.37 252.404) rotate(-166.64)" font-size="26" font-family="SegoeUI, Segoe UI"><tspan x="0" y="0">i</tspan></text>
    <text id="l-6" data-name="l" transform="translate(108.876 250.855) rotate(-163.39)" font-size="26" font-family="SegoeUI, Segoe UI"><tspan x="0" y="0">l</tspan></text>
    <text id="i-5" data-name="i" transform="translate(102.806 249.067) rotate(-160.15)" font-size="26" font-family="SegoeUI, Segoe UI"><tspan x="0" y="0">i</tspan></text>
    <text id="s-3" data-name="s" transform="matrix(-0.912, -0.411, 0.411, -0.912, 95.719, 248.73)" font-size="24" font-family="SegoeUI, Segoe UI"><tspan x="0" y="0">s</tspan></text>
    <text id="e-7" data-name="e" transform="translate(85.452 243.059) rotate(-149.331)" font-size="25" font-family="SegoeUI, Segoe UI"><tspan x="0" y="0">e</tspan></text>
    <text id="e-8" data-name="e" transform="translate(73.549 236.004) rotate(-142.326)" font-size="25" font-family="SegoeUI, Segoe UI"><tspan x="0" y="0">e</tspan></text>
    <text id="H-3" data-name="H" transform="translate(57.179 221.386) rotate(-131.16)" font-size="26" font-family="SegoeUI, Segoe UI"><tspan x="0" y="0">H</tspan></text>
    <text id="o-3" data-name="o" transform="matrix(-0.552, -0.834, 0.834, -0.552, 46.539, 209.202)" font-size="26" font-family="SegoeUI, Segoe UI"><tspan x="0" y="0">o</tspan></text>
    <text id="t-6" data-name="t" transform="translate(38.123 196.195) rotate(-117.3)" font-size="26" font-family="SegoeUI, Segoe UI"><tspan x="0" y="0">t</tspan></text>
    <text id="e-9" data-name="e" transform="translate(32.903 188.512) rotate(-111.695)" font-size="25" font-family="SegoeUI, Segoe UI"><tspan x="0" y="0">e</tspan></text>
    <text id="l-7" data-name="l" transform="translate(28.909 175.293) rotate(-106.61)" font-size="26" font-family="SegoeUI, Segoe UI"><tspan x="0" y="0">l</tspan></text>
    <text id="_3" data-name="@" transform="translate(22.644 128.619) rotate(-77.54)" font-size="26" font-family="SegoeUI, Segoe UI"><tspan x="0" y="0">@</tspan></text>
  </g>
</svg>
